<?xml version="1.0" encoding="utf-8"?>
<?xml-stylesheet type="text/xsl" href="rss1.xsl"?>
<rss version="2.0" xmlns:atom="http://www.w3.org/2005/Atom" xmlns:content="http://purl.org/rss/1.0/modules/content/" xmlns:dc="http://purl.org/dc/elements/1.1/" xmlns:media="http://search.yahoo.com/mrss/">
<channel>
 <title>Getty</title>
 <link>http://www.gettyimg.com/</link>
 <atom:link href="http://www.gettyimg.com/" rel="self" type="application/rss+xml" />

 
                <item>
                <title><![CDATA[【HD Live Performances】WEB-RiP - Megadeth - Wacken Open Air Live (2023) HD 1080p]]></title>
                <link><![CDATA[https://sharemania.us/threads/megadeth-wacken-open-air-live-2023-hd-1080p.225871/]]></link>
                <description><![CDATA[<article>
<blockquote class="messageText SelectQuoteContainer ugc baseHtml">
<div style="text-align: center">Megadeth - Wacken Open Air Live (2023) HD 1080p<br>
<br>
<img src="https://imageup.ru/img78/4461672/meg.jpg" class="bbCodeImage LbImage" alt="[​IMG]" data-url="https://imageup.ru/img78/4461672/meg.jpg" style=""><br>
<br>
Screenshots:<br>
<img src="https://imageup.ru/img58/4461677/megadeth-wacken-open-air-live-2023-1080p_idx.jpg" class="bbCodeImage LbImage" alt="[​IMG]" data-url="https://imageup.ru/img58/4461677/megadeth-wacken-open-air-live-2023-1080p_idx.jpg" style=""><br>
<br>
Setlist:<br>
01 - Hangar 18<br>
02 - Wake Up Dead<br>
03 - In My Darkest Hour<br>
04 - Dystopia<br>
05 - We'll Be Back<br>
06 - Dread and the Fugitive Mind<br>
07 - Sweating Bullets<br>
08 - Angry Again<br>
09 - A tout le monde<br>
10 - Trust (with Marty Friedman)<br>
11 - Tornado of Souls (with Marty Friedman)<br>
12 - Symphony of Destruction (with Marty Friedman)<br>
13 - Mechanix<br>
14 - Peace Sells<br>
<br>
Info:<br>
Genre: Thrash Metal | Speed Metal<br>
Quality: WEB-DL | 1080p<br>
Format: MKV | 7320kbps<br>
Length: 01:29:00 | 4.6Gb<br>
Video: H.264 | 1920x1080 | 16:9 | 25.000fps<br>
Audio: AAC | 128kbps | 48kHz | 2 channels: L R<br>
Language: English<br>
<br>
Download:<br>
Rapidgator.net, Uploadgig.com, Ddownload.com<br>
<div class="bbCodeBlock bbCodeVfcHH HiddenContent">
<div class="attribution type">Hidden Content:</div>
<blockquote>You must either reply or click 'Like' to see the hidden information contained here.</blockquote>
</div>pass: 345<br>
<br>
​</div>
<div class="messageTextEndMarker">&nbsp;</div>
</blockquote>
</article>]]></description>
                <author><![CDATA[barboss]]></author>
                </item>

                
                <item>
                <title><![CDATA[【BLU-RAY】BDRiP - Duran Duran - A Hollywood High (2023) BDRip 1080p]]></title>
                <link><![CDATA[https://sharemania.us/threads/duran-duran-a-hollywood-high-2023-bdrip-1080p.225869/]]></link>
                <description><![CDATA[<article>
<blockquote class="messageText SelectQuoteContainer ugc baseHtml">
<div style="text-align: center">Duran Duran - A Hollywood High (2023) BDRip 1080p<br>
<br>
<img src="https://imageup.ru/img264/4461673/dd.jpg" class="bbCodeImage LbImage" alt="[​IMG]" data-url="https://imageup.ru/img264/4461673/dd.jpg" style=""><br>
<br>
Screenshots:<br>
<img src="https://imageup.ru/img34/4461675/01.jpg" class="bbCodeImage LbImage" alt="[​IMG]" data-url="https://imageup.ru/img34/4461675/01.jpg" style=""><br>
<br>
Setlist:<br>
01. A view to a kill<br>
02. Invisible<br>
03. All of you<br>
04. Notorious<br>
05. Come undone<br>
06. Give it all up<br>
07. Pressure off<br>
08. White lines<br>
09. Anniversary<br>
10. Ordinary world<br>
11. Tonight united<br>
12. Hungry like the wolf<br>
<br>
Bonus features: <br>
- Interview with Roger Taylor <br>
- ‘All Of You’ exclusive (never seen before) performance<br>
- Film premiere Q&amp;A highlights<br>
<br>
Info:<br>
Genre: New Wave | Rock<br>
Quality: BDRip | 1080p<br>
Format: MKV | 8253kbps<br>
Length: 01:12:17 + 00:13:05 | 7.19Gb<br>
Video: H.264 | 1920x1080 | 16:9 | 23.976fps<br>
Audio 1: LPCM | 2304kbps | 48kHz | 2 channels: L R<br>
Audio 2: DTS | 1509kbps | 48kHz | 6 channels: Front: L C R, Surround: L R<br>
Language: English<br>
<br>
Download:<br>
Rapidgator.net, Uploadgig.com, Ddownload.com<br>
<div class="bbCodeBlock bbCodeVfcHH HiddenContent">
<div class="attribution type">Hidden Content:</div>
<blockquote>You must either reply or click 'Like' to see the hidden information contained here.</blockquote>
</div>pass: 345<br>
<br>
​</div>
<div class="messageTextEndMarker">&nbsp;</div>
</blockquote>
</article>]]></description>
                <author><![CDATA[barboss]]></author>
                </item>

                
                <item>
                <title><![CDATA[【Actresses】Florence Guerin - The Corruption (1986)]]></title>
                <link><![CDATA[https://sharemania.us/threads/florence-guerin-the-corruption-1986.225867/]]></link>
                <description><![CDATA[<article>
<blockquote class="messageText SelectQuoteContainer ugc baseHtml">
Florence Guerin - The Corruption (1986)<br>
<br>
<a href="https://imgbox.com/0S8NoDxY" target="_blank" class="externalLink" rel="nofollow"><img src="https://thumbs2.imgbox.com/35/bd/0S8NoDxY_t.jpg" class="bbCodeImage LbImage" alt="[​IMG]" data-url="https://thumbs2.imgbox.com/35/bd/0S8NoDxY_t.jpg"></a> <a href="https://imgbox.com/IAjk3woS" target="_blank" class="externalLink" rel="nofollow"><img src="https://thumbs2.imgbox.com/ff/bf/IAjk3woS_t.jpg" class="bbCodeImage LbImage" alt="[​IMG]" data-url="https://thumbs2.imgbox.com/ff/bf/IAjk3woS_t.jpg"></a> <a href="https://imgbox.com/kKqfi0Mn" target="_blank" class="externalLink" rel="nofollow"><img src="https://thumbs2.imgbox.com/ca/cf/kKqfi0Mn_t.jpg" class="bbCodeImage LbImage" alt="[​IMG]" data-url="https://thumbs2.imgbox.com/ca/cf/kKqfi0Mn_t.jpg"></a> <a href="https://imgbox.com/ltDtryBM" target="_blank" class="externalLink" rel="nofollow"><img src="https://thumbs2.imgbox.com/f1/f6/ltDtryBM_t.jpg" class="bbCodeImage LbImage" alt="[​IMG]" data-url="https://thumbs2.imgbox.com/f1/f6/ltDtryBM_t.jpg"></a> <a href="https://imgbox.com/aEEaGh9b" target="_blank" class="externalLink" rel="nofollow"><img src="https://thumbs2.imgbox.com/54/d4/aEEaGh9b_t.jpg" class="bbCodeImage LbImage" alt="[​IMG]" data-url="https://thumbs2.imgbox.com/54/d4/aEEaGh9b_t.jpg"></a> <a href="https://imgbox.com/VlvcWtt7" target="_blank" class="externalLink" rel="nofollow"><img src="https://thumbs2.imgbox.com/14/48/VlvcWtt7_t.jpg" class="bbCodeImage LbImage" alt="[​IMG]" data-url="https://thumbs2.imgbox.com/14/48/VlvcWtt7_t.jpg"></a><br>
Duration: 0:01:22 Resolution: 720x576 Format: mp4 Size: 11.39 MB<br>
<div class="bbCodeBlock bbCodeVfcHH HiddenContent">
<div class="attribution type">Hidden Content:</div>
<blockquote>You must either reply or click 'Like' to see the hidden information contained here.</blockquote>
</div>
<div class="messageTextEndMarker">&nbsp;</div>
</blockquote>
</article>]]></description>
                <author><![CDATA[piqeros]]></author>
                </item>

                
                <item>
                <title><![CDATA[【MTV HD】VA - MTV All Nighter Soundtracks (2023) HDTV]]></title>
                <link><![CDATA[https://sharemania.us/threads/va-mtv-all-nighter-soundtracks-2023-hdtv.225872/]]></link>
                <description><![CDATA[<article>
<blockquote class="messageText SelectQuoteContainer ugc baseHtml">
<div style="text-align: center">VA - MTV All Nighter Soundtracks (2023) HDTV<br>
<br>
<img src="https://imageup.ru/img209/4460070/mas.jpg" class="bbCodeImage LbImage" alt="[​IMG]" data-url="https://imageup.ru/img209/4460070/mas.jpg" style=""><br>
<br>
Screenshots:<br>
<img src="https://imageup.ru/img298/4460071/mtalso.jpg" class="bbCodeImage LbImage" alt="[​IMG]" data-url="https://imageup.ru/img298/4460071/mtalso.jpg" style=""><br>
<br>
Setlist:<br>
01 - CHRIS CORNELL - "You Know My Name" - James Bond - Casino Royale<br>
02 - TAINY &amp; J BALVIN - "Agua" - Sponge On The Run<br>
03 - DIGITAL UNDERGROUND - "Same Song" - Valkenvania<br>
04 - WILLIAMS - "Colours Of The Wind" - Pocahontas<br>
05 - CHRISTINA PERRI - "A Thousand Years" - Twilight<br>
06 - SARAH CONNOR - "From Zero To Hero" - Robots<br>
07 - 2 CHAINZ ft.WIZ KHALIFA - "We Own It" - Fast &amp; Furious 6"<br>
08 - PHIL OAKEY &amp; GIORGIO MORODER - "Together In Electric Dreams" - Electric Dreams<br>
09 - SPICE GIRLS - "Too Much" - Spiceworld<br>
10 - DIPLO, FRENCH MONTANA &amp; LIL PUMP ft.ZHAVIA WARD - "Welcome To The Party" - Deadpool 2<br>
11 - AEROSMITH - "I Don't Want To Miss A Thing" - Armageddon<br>
12 - LOS LOBOS - "La Bamba" - La Bamba<br>
13 - FERGIE - "A Little Party Never Killed Nobody" - The Great Gatsby<br>
14 - LADY GAGA - "Shallow" - A Star Is Born<br>
15 - GLEE CAST - "True Colours" - Glee<br>
16 - MADONNA - "Die Another Day " - James Bond<br>
17 - WILL SMITH - "Black Suite Comin'" - Men In Black II<br>
18 - QUEEN - "Flash" - Flash Gordon<br>
19 - SHERYL CROW - "Tomorrow Never Die" - James Bond<br>
20 - UDO LINDENBERG - "Niemals Dran Gezweifelt"<br>
21 - WHITNEY HOUSTON - "I Will Always Love You" - The Bodygard<br>
22 - LENA - "Wild and Free" - F*ck Ju Gohte 2<br>
23 - JIMMY CLIFF - "I Can See Clearly Now" - Cool Runnings<br>
24 - JOE COCKER &amp; JENNIFER WARNES - "Up Where We Belong" <br>
25 - GUNS N ROSES - "You Could Be Mine" - Treminator 2<br>
26 - SAM SMITH - "Writing's On The Wall" - James Bond 007<br>
27 - STEFAN RAAB - "Hier Kommt Die Maus"<br>
28 - KENDRICK LAMAR ft.SZA - "All The Stars" - Black Panther<br>
29 - OLIVIA NEWTON JOHN &amp; JOHN TRAVOLTA - "You're The One That I Want" - Grease<br>
30 - BEACH BOYS - "Kokomo" - Cocktail<br>
31 - ED SHEERAN - "I See Fire"<br>
32 - TIMBALAND ft.ONE REPUBLIC - "Apologize"<br>
33 - PITBULL - "Back In Time" - Men In Black 3<br>
34 - ANDERSON .PAAK &amp; JUSTIN TIMBERLAKE - "Don't Slack" - Trolls 2<br>
35 - PLACEBO - "Every Me, Every You" <br>
36 - ELLIE GOULDING - "Love Me Like You Do" - Fifty Shades Of Grey<br>
37 - SEAL - "Kiss From A Rose" - Batman Forever<br>
38 - LIL WAYNE,WIZ KHALIFA,IMAGINE DRAGONS - "Sucker For Pain" - Suicide Squad<br>
39 - ZAYN &amp; TAYLOR SWIFT - "I Don't Wanna Live Forever" - Fifty Shades Of Grey<br>
40 - ARIANA GRANDE, MILEY CYRUS &amp; LANA DEL REY - "Don't Call Angel" - Charlie's Angels<br>
41 - AZAD ft.ADEL TAWIL - "Prison Break Anthem" - Prison Break<br>
42 - DEMI LOVATO - "Let It Go"<br>
43 - RONAN KEATING - "When You Say Nothing At All" - Notting Hill<br>
44 - JACK JOHNSON - "Upside Down"<br>
45 - KENNY LOGGINS - "Footloose" - Footloose<br>
46 - GARBAGE - "The World Is Not Enough" - James Bond<br>
47 - JENNIFER WARNES &amp; BILL MEDLEY - "The Time Of My Life" - Dirty Dancing"<br>
48 - A.R.RAHMAN ft.PUSSYCAT DOLLS - "Jai Ho"<br>
49 - AVRIL LAVIGNE - "Spongebob Squarepants Theme"<br>
50 - THE REMBRANDTS - "I'll Be There For You" - Friends cast<br>
51 - STEVIE WONDER ft.ARIANA GRANDE - "Faith" - Sing<br>
52 - JONAH - "Deep Deep Blue"<br>
53 - HUEY LEWIS &amp; THE NEWS - "Power Of Love"<br>
54 - RITA ORA &amp; LIAM PAYNE - "For You" - Fifty Shades Of Grey<br>
55 - PATRICK SWAYZE - "She's Like The Wind" - Dirty Dancing<br>
56 - PHARELL WILLIAMS - "There's Something Special"<br>
57 - BRUCE SPRINGSTEEN - "Secret Garden"<br>
58 - THE WEEKND - "Earned It" - Fifty Shades Of Grey<br>
59 - KALEO - "Way Down We Go"<br>
60 - JAMIROQUAL - "Deeper Underground" - Godzilla<br>
61 - ONEREPUBLIC - "Let's Hurt Tonight"<br>
62 - SPONGEBOB - "Lecker Lecker"<br>
63 - JAY-Z - "Can I Get A" - Rush Hour<br>
64 - LADY GAGA - "Shallow" - A Star Is Born<br>
65 - GLEE CAST - "Bad Romance"<br>
66 - QUEEN - "Bohemian Rhapsody" - Bohemian Rhapsody<br>
67 - EMINEM - "Lose Yourself" - 8 Mile<br>
68 - BOY MEET GIRL - "Waiting For A Star To Fall"<br>
69 - SIA - "Rainbow - "My Little Pony"<br>
70 - 5 SECONDS OF SUMMER - "Girls Talk Boys" - Ghostbusters<br>
71 - FAITH HILL - "The Kiss"<br>
72 - IRENE CARA - "Flashdance...What A Feeling" - Flashdance<br>
73 - JOY DENALANE - "Keine Religion"<br>
74 - WELSHLY ARMS - "Legendary" - Power Rangers<br>
75 - BERLIN - "Take My Breathe Away" - Top Gun<br>
76 - CELINE DION - "Mu Heart Will Go On" - Titanic<br>
77 - ELTON JOHN - "Circle Of Life" <br>
78 - THE CARDIGANS - "Lovefool"<br>
79 - JESSIE J - "Flashlight" - PITCH PERFECT 2<br>
<br>
<br>
Info:<br>
Source:<br>
<img src="https://imageup.ru/img232/3836179/mtv.jpg" class="bbCodeImage LbImage" alt="[​IMG]" data-url="https://imageup.ru/img232/3836179/mtv.jpg" style=""><br>
Lineage: Vu+Solo2 DVB-S2 satellite receiver -&gt; HDD -&gt; Videoredo TV Suite 5.1.1 -&gt; .ts file format<br>
Genre: Pop | Soul | R&amp;B | Rock <br>
Quality: HDTV | 1080i<br>
Format: TS | 5575kbps<br>
Length: 04:54:00 | 12.9Gb<br>
Video: H.264 | 1440x1080i | 16:9 | 25.000fps<br>
Audio: AC3 | 384kbps | 48kHz | 2 channels: L R<br>
Language: English<br>
<br>
Capped by me<br>
<br>
Download:<br>
Rapidgator.net, Uploadgig.com, Ddownload.com<br>
<div class="bbCodeBlock bbCodeVfcHH HiddenContent">
<div class="attribution type">Hidden Content:</div>
<blockquote>You must either reply or click 'Like' to see the hidden information contained here.</blockquote>
</div>pass: 345<br>
<br>
​</div>
<div class="messageTextEndMarker">&nbsp;</div>
</blockquote>
</article>]]></description>
                <author><![CDATA[barboss]]></author>
                </item>

                
                <item>
                <title><![CDATA[【Cinema Center】SERIES - BTS: Burn The Stage - 2018 - 4K YouTube Premium Originals]]></title>
                <link><![CDATA[https://sharemania.us/threads/bts-burn-the-stage-2018-4k-youtube-premium-originals.225866/]]></link>
                <description><![CDATA[<article>
<blockquote class="messageText SelectQuoteContainer ugc baseHtml">
<img src="https://i.imgur.com/vB4lLeM.png" class="bbCodeImage LbImage" alt="[​IMG]" data-url="https://i.imgur.com/vB4lLeM.png" style=""><br>
<b><span style="text-decoration: underline">Show Synopsis</span></b><br>
"Burn the Stage" follows the 300-day journey of the band's sold-out world tour, 2017 BTS LIVE TRILOGY EPISODE: THE WINGS TOUR. This show is an intimate, personal portrayal dedicated to each other and to their fans across the globe. It celebrates the triumph of their friendship as they overcome shared hardships, and shows the growth and hard work as BTS continues on the path to grow into fully-fledged artists.<br>
<b><span style="text-decoration: underline">Year:</span></b> 2018<br>
<b><span style="text-decoration: underline">Source:</span></b> YouTube Premium<br>
<b><span style="text-decoration: underline">Rating:</span> </b>TV-PG (Partner Rating), No Mature Content (YouTube)<br>
<b><span style="text-decoration: underline"><br>
Episodes<br>
Episode 1: I’d Do It All<br>
Synopsis:</span></b> The clock is ticking and the world awaits... With only days left, can BTS pull together in time for their massive world tour? From backstage to private moments, BTS gives you unfiltered access to their groundbreaking 2017 Wings world tour. We turn back the clock to one year ago, when BTS began their global journey that led them to become one of the biggest artists in the world. With just 3 days left before the start of their world tour, witness the behind-the-scenes drama of their growth, with never-before-revealed moments of their training and rehearsals.<br>
<b><span style="text-decoration: underline">Release Date:</span></b> March 28, 2018<br>
<div class="ToggleTriggerAnchor bbCodeSpoilerContainer">
<button type="button" class="button bbCodeSpoilerButton ToggleTrigger Tooltip JsOnly" data-target="> .SpoilerTarget"><span>Spoiler: <span class="SpoilerTitle">Thumbnails</span></span></button>
<div class="SpoilerTarget bbCodeSpoilerText"><img src="https://i.imgur.com/wAsGZBY.jpg" class="bbCodeImage LbImage" alt="[​IMG]" data-url="https://i.imgur.com/wAsGZBY.jpg" style=""></div>
</div>
<div class="ToggleTriggerAnchor bbCodeSpoilerContainer">
<button type="button" class="button bbCodeSpoilerButton ToggleTrigger Tooltip JsOnly" data-target="> .SpoilerTarget"><span>Spoiler: <span class="SpoilerTitle">MediaInfo</span></span></button>
<div class="SpoilerTarget bbCodeSpoilerText">General<br>
Unique ID : 134249255961153594984286288545359367760 (0x64FF775952FF3B98F2163BAC22088E50)<br>
Format : Matroska<br>
Format version : Version 4<br>
File size : 1.76 GiB<br>
Duration : 21 min 12 s<br>
Overall bit rate : 11.9 Mb/s<br>
Frame rate : 23.976 FPS<br>
Encoded date : 2023-08-06 04:45:29 UTC<br>
Writing application : mkvmerge v78.0 ('Running') 64-bit<br>
Writing library : libebml v1.4.4 + libmatroska v1.7.1 / Lavf60.10.100<br>
<br>
Video<br>
ID : 1<br>
Format : VP9<br>
Format profile : 0<br>
Codec ID : V_VP9<br>
Duration : 21 min 12 s<br>
Bit rate : 11.8 Mb/s<br>
Width : 3 840 pixels<br>
Height : 2 160 pixels<br>
Display aspect ratio : 16:9<br>
Frame rate mode : Constant<br>
Frame rate : 23.976 (24000/1001) FPS<br>
Color space : YUV<br>
Chroma subsampling : 4:2:0<br>
Bit depth : 8 bits<br>
Bits/(Pixel*Frame) : 0.059<br>
Stream size : 1.74 GiB (99%)<br>
Default : Yes<br>
Forced : No<br>
Color range : Limited<br>
Matrix coefficients : BT.709<br>
<br>
Audio<br>
ID : 2<br>
Format : AAC LC<br>
Format/Info : Advanced Audio Codec Low Complexity<br>
Codec ID : A_AAC-2<br>
Duration : 21 min 12 s<br>
Bit rate : 132 kb/s<br>
Channel(s) : 2 channels<br>
Channel layout : L R<br>
Sampling rate : 44.1 kHz<br>
Frame rate : 43.066 FPS (1024 SPF)<br>
Compression mode : Lossy<br>
Stream size : 19.8 MiB (1%)<br>
Default : Yes<br>
Forced : No<br>
<br>
Text #1<br>
ID : 3<br>
Format : S_TEXT/WEBVTT<br>
Codec ID : S_TEXT/WEBVTT<br>
Duration : 19 min 31 s<br>
Bit rate : 86 b/s<br>
Frame rate : 0.290 FPS<br>
Count of elements : 340<br>
Stream size : 12.4 KiB (0%)<br>
Language : German<br>
Default : Yes<br>
Forced : No<br>
<br>
Text #2<br>
ID : 4<br>
Format : S_TEXT/WEBVTT<br>
Codec ID : S_TEXT/WEBVTT<br>
Duration : 19 min 29 s<br>
Bit rate : 81 b/s<br>
Frame rate : 0.291 FPS<br>
Count of elements : 340<br>
Stream size : 11.7 KiB (0%)<br>
Language : English<br>
Default : Yes<br>
Forced : No<br>
<br>
Text #3<br>
ID : 5<br>
Format : S_TEXT/WEBVTT<br>
Codec ID : S_TEXT/WEBVTT<br>
Duration : 19 min 34 s<br>
Bit rate : 73 b/s<br>
Frame rate : 0.250 FPS<br>
Count of elements : 294<br>
Stream size : 10.6 KiB (0%)<br>
Language : Spanish (Latin America)<br>
Default : Yes<br>
Forced : No<br>
<br>
Text #4<br>
ID : 6<br>
Format : S_TEXT/WEBVTT<br>
Codec ID : S_TEXT/WEBVTT<br>
Duration : 19 min 29 s<br>
Bit rate : 84 b/s<br>
Frame rate : 0.289 FPS<br>
Count of elements : 338<br>
Stream size : 12.1 KiB (0%)<br>
Language : French<br>
Default : Yes<br>
Forced : No<br>
<br>
Text #5<br>
ID : 7<br>
Format : S_TEXT/WEBVTT<br>
Codec ID : S_TEXT/WEBVTT<br>
Duration : 20 min 4 s<br>
Bit rate : 82 b/s<br>
Frame rate : 0.282 FPS<br>
Count of elements : 340<br>
Stream size : 12.1 KiB (0%)<br>
Language : Indonesian<br>
Default : Yes<br>
Forced : No<br>
<br>
Text #6<br>
ID : 8<br>
Format : S_TEXT/WEBVTT<br>
Codec ID : S_TEXT/WEBVTT<br>
Duration : 20 min 27 s<br>
Bit rate : 88 b/s<br>
Frame rate : 0.280 FPS<br>
Count of elements : 344<br>
Stream size : 13.2 KiB (0%)<br>
Language : Italian<br>
Default : Yes<br>
Forced : No<br>
<br>
Text #7<br>
ID : 9<br>
Format : S_TEXT/WEBVTT<br>
Codec ID : S_TEXT/WEBVTT<br>
Duration : 20 min 27 s<br>
Bit rate : 90 b/s<br>
Frame rate : 0.266 FPS<br>
Count of elements : 327<br>
Stream size : 13.5 KiB (0%)<br>
Language : Japanese<br>
Default : Yes<br>
Forced : No<br>
<br>
Text #8<br>
ID : 10<br>
Format : S_TEXT/WEBVTT<br>
Codec ID : S_TEXT/WEBVTT<br>
Duration : 19 min 29 s<br>
Bit rate : 101 b/s<br>
Frame rate : 0.304 FPS<br>
Count of elements : 355<br>
Stream size : 14.5 KiB (0%)<br>
Language : Korean<br>
Default : Yes<br>
Forced : No<br>
<br>
Text #9<br>
ID : 11<br>
Format : S_TEXT/WEBVTT<br>
Codec ID : S_TEXT/WEBVTT<br>
Duration : 19 min 29 s<br>
Bit rate : 85 b/s<br>
Frame rate : 0.292 FPS<br>
Count of elements : 341<br>
Stream size : 12.2 KiB (0%)<br>
Language : Portuguese (BR)<br>
Default : Yes<br>
Forced : No<br>
<br>
Text #10<br>
ID : 12<br>
Format : S_TEXT/WEBVTT<br>
Codec ID : S_TEXT/WEBVTT<br>
Duration : 20 min 26 s<br>
Bit rate : 130 b/s<br>
Frame rate : 0.324 FPS<br>
Count of elements : 398<br>
Stream size : 19.5 KiB (0%)<br>
Language : Russian<br>
Default : Yes<br>
Forced : No</div>
</div>
<div class="bbCodeBlock bbCodeVfcHH HiddenContent">
<div class="attribution type">Hidden Content:</div>
<blockquote>You must either reply or click 'Like' to see the hidden information contained here.</blockquote>
</div><b><span style="text-decoration: underline"><br>
Episode 2: You Already Have the Answer<br>
Synopsis:</span></b> A moment of triumph takes a scary turn: Jungkook, the youngest member, falls terribly ill. The Wings tour officially kicks off with a BANG in Seoul, Korea. Experience firsthand how BTS feeds off the energy of their fans while they tackle the numerous challenges put before them: the complications of long distance traveling, rehearsing in new venues, and tweaking their performances to perfection, all while still working on new music. Unfortunately, the grueling schedule takes a toll and the members are dealt a scare in Chile...<br>
<span style="text-decoration: underline"><b>Release Date:</b></span> March 28, 2018<br>
<div class="ToggleTriggerAnchor bbCodeSpoilerContainer">
<button type="button" class="button bbCodeSpoilerButton ToggleTrigger Tooltip JsOnly" data-target="> .SpoilerTarget"><span>Spoiler: <span class="SpoilerTitle">Thumbnails</span></span></button>
<div class="SpoilerTarget bbCodeSpoilerText"><img src="https://i.imgur.com/fS9pXbA.jpg" class="bbCodeImage LbImage" alt="[​IMG]" data-url="https://i.imgur.com/fS9pXbA.jpg" style=""></div>
</div>
<div class="ToggleTriggerAnchor bbCodeSpoilerContainer">
<button type="button" class="button bbCodeSpoilerButton ToggleTrigger Tooltip JsOnly" data-target="> .SpoilerTarget"><span>Spoiler: <span class="SpoilerTitle">MediaInfo</span></span></button>
<div class="SpoilerTarget bbCodeSpoilerText">General<br>
Unique ID : 125902147999432128772820040875347884644 (0x5EB7DF270AA8375257D583C4B5F93A64)<br>
Format : Matroska<br>
Format version : Version 4<br>
File size : 2.23 GiB<br>
Duration : 26 min 55 s<br>
Overall bit rate : 11.9 Mb/s<br>
Frame rate : 23.976 FPS<br>
Encoded date : 2023-08-06 04:44:35 UTC<br>
Writing application : mkvmerge v78.0 ('Running') 64-bit<br>
Writing library : libebml v1.4.4 + libmatroska v1.7.1 / Lavf60.10.100<br>
<br>
Video<br>
ID : 1<br>
Format : VP9<br>
Format profile : 0<br>
Codec ID : V_VP9<br>
Duration : 26 min 55 s<br>
Bit rate : 11.7 Mb/s<br>
Width : 3 840 pixels<br>
Height : 2 160 pixels<br>
Display aspect ratio : 16:9<br>
Frame rate mode : Constant<br>
Frame rate : 23.976 (24000/1001) FPS<br>
Color space : YUV<br>
Chroma subsampling : 4:2:0<br>
Bit depth : 8 bits<br>
Bits/(Pixel*Frame) : 0.059<br>
Stream size : 2.21 GiB (99%)<br>
Default : Yes<br>
Forced : No<br>
Color range : Limited<br>
Matrix coefficients : BT.709<br>
<br>
Audio<br>
ID : 2<br>
Format : AAC LC<br>
Format/Info : Advanced Audio Codec Low Complexity<br>
Codec ID : A_AAC-2<br>
Duration : 26 min 55 s<br>
Bit rate : 132 kb/s<br>
Channel(s) : 2 channels<br>
Channel layout : L R<br>
Sampling rate : 44.1 kHz<br>
Frame rate : 43.066 FPS (1024 SPF)<br>
Compression mode : Lossy<br>
Stream size : 25.1 MiB (1%)<br>
Default : Yes<br>
Forced : No<br>
<br>
Text #1<br>
ID : 3<br>
Format : S_TEXT/WEBVTT<br>
Codec ID : S_TEXT/WEBVTT<br>
Duration : 25 min 48 s<br>
Bit rate : 62 b/s<br>
Frame rate : 0.214 FPS<br>
Count of elements : 332<br>
Stream size : 11.9 KiB (0%)<br>
Language : German<br>
Default : Yes<br>
Forced : No<br>
<br>
Text #2<br>
ID : 4<br>
Format : S_TEXT/WEBVTT<br>
Codec ID : S_TEXT/WEBVTT<br>
Duration : 24 min 7 s<br>
Bit rate : 64 b/s<br>
Frame rate : 0.227 FPS<br>
Count of elements : 329<br>
Stream size : 11.4 KiB (0%)<br>
Language : English<br>
Default : Yes<br>
Forced : No<br>
<br>
Text #3<br>
ID : 5<br>
Format : S_TEXT/WEBVTT<br>
Codec ID : S_TEXT/WEBVTT<br>
Duration : 24 min 37 s<br>
Bit rate : 57 b/s<br>
Frame rate : 0.223 FPS<br>
Count of elements : 330<br>
Stream size : 10.3 KiB (0%)<br>
Language : Spanish (Latin America)<br>
Default : Yes<br>
Forced : No<br>
<br>
Text #4<br>
ID : 6<br>
Format : S_TEXT/WEBVTT<br>
Codec ID : S_TEXT/WEBVTT<br>
Duration : 24 min 6 s<br>
Bit rate : 68 b/s<br>
Frame rate : 0.229 FPS<br>
Count of elements : 331<br>
Stream size : 12.0 KiB (0%)<br>
Language : French<br>
Default : Yes<br>
Forced : No<br>
<br>
Text #5<br>
ID : 7<br>
Format : S_TEXT/WEBVTT<br>
Codec ID : S_TEXT/WEBVTT<br>
Duration : 24 min 28 s<br>
Bit rate : 65 b/s<br>
Frame rate : 0.228 FPS<br>
Count of elements : 335<br>
Stream size : 11.7 KiB (0%)<br>
Language : Indonesian<br>
Default : Yes<br>
Forced : No<br>
<br>
Text #6<br>
ID : 8<br>
Format : S_TEXT/WEBVTT<br>
Codec ID : S_TEXT/WEBVTT<br>
Duration : 25 min 5 s<br>
Bit rate : 72 b/s<br>
Frame rate : 0.228 FPS<br>
Count of elements : 343<br>
Stream size : 13.4 KiB (0%)<br>
Language : Italian<br>
Default : Yes<br>
Forced : No<br>
<br>
Text #7<br>
ID : 9<br>
Format : S_TEXT/WEBVTT<br>
Codec ID : S_TEXT/WEBVTT<br>
Duration : 25 min 17 s<br>
Bit rate : 68 b/s<br>
Frame rate : 0.212 FPS<br>
Count of elements : 321<br>
Stream size : 12.7 KiB (0%)<br>
Language : Japanese<br>
Default : Yes<br>
Forced : No<br>
<br>
Text #8<br>
ID : 10<br>
Format : S_TEXT/WEBVTT<br>
Codec ID : S_TEXT/WEBVTT<br>
Duration : 25 min 16 s<br>
Bit rate : 72 b/s<br>
Frame rate : 0.230 FPS<br>
Count of elements : 349<br>
Stream size : 13.4 KiB (0%)<br>
Language : Korean<br>
Default : Yes<br>
Forced : No<br>
<br>
Text #9<br>
ID : 11<br>
Format : S_TEXT/WEBVTT<br>
Codec ID : S_TEXT/WEBVTT<br>
Duration : 24 min 7 s<br>
Bit rate : 64 b/s<br>
Frame rate : 0.227 FPS<br>
Count of elements : 329<br>
Stream size : 11.3 KiB (0%)<br>
Language : Portuguese (BR)<br>
Default : Yes<br>
Forced : No<br>
<br>
Text #10<br>
ID : 12<br>
Format : S_TEXT/WEBVTT<br>
Codec ID : S_TEXT/WEBVTT<br>
Duration : 26 min 11 s<br>
Bit rate : 103 b/s<br>
Frame rate : 0.270 FPS<br>
Count of elements : 425<br>
Stream size : 19.8 KiB (0%)<br>
Language : Russian<br>
Default : Yes<br>
Forced : No</div>
</div>
<div class="bbCodeBlock bbCodeVfcHH HiddenContent">
<div class="attribution type">Hidden Content:</div>
<blockquote>You must either reply or click 'Like' to see the hidden information contained here.</blockquote>
</div><span style="text-decoration: underline"><b><br>
Episode 3: </b></span><b><span style="text-decoration: underline">Just Give Me a Smile<br>
Synopsis:</span></b> In their most private moment, BTS open up and reveal the truth about themselves. BTS continue their whirlwind South America tour. Though exhausted, the members are able to battle through by supporting each other mentally and physically. After their wild and invigorating performance in Chile, the members celebrate with a small Chi’Maek (Chicken &amp; Beer) Party. During this brief respite, the members reminiscence about their time as trainees, and the early years of their debut. Hear for the first their earliest impressions of each other, and the emotions they experienced when they first began.<br>
<b><span style="text-decoration: underline">Release Date:</span></b> April 4, 2018<br>
<div class="ToggleTriggerAnchor bbCodeSpoilerContainer">
<button type="button" class="button bbCodeSpoilerButton ToggleTrigger Tooltip JsOnly" data-target="> .SpoilerTarget"><span>Spoiler: <span class="SpoilerTitle">Thumbnails</span></span></button>
<div class="SpoilerTarget bbCodeSpoilerText"><img src="https://i.imgur.com/5AkovYN.jpg" class="bbCodeImage LbImage" alt="[​IMG]" data-url="https://i.imgur.com/5AkovYN.jpg" style=""></div>
</div>
<div class="ToggleTriggerAnchor bbCodeSpoilerContainer">
<button type="button" class="button bbCodeSpoilerButton ToggleTrigger Tooltip JsOnly" data-target="> .SpoilerTarget"><span>Spoiler: <span class="SpoilerTitle">MediaInfo</span></span></button>
<div class="SpoilerTarget bbCodeSpoilerText">General<br>
Unique ID : 15394931595092645062320952631507918021 (0xB94F4BAC860B18D6C30B0F40E199CC5)<br>
Format : Matroska<br>
Format version : Version 4<br>
File size : 2.20 GiB<br>
Duration : 26 min 37 s<br>
Overall bit rate : 11.9 Mb/s<br>
Frame rate : 23.976 FPS<br>
Encoded date : 2023-08-06 05:29:17 UTC<br>
Writing application : mkvmerge v78.0 ('Running') 64-bit<br>
Writing library : libebml v1.4.4 + libmatroska v1.7.1 / Lavf60.10.100<br>
<br>
Video<br>
ID : 1<br>
Format : VP9<br>
Format profile : 0<br>
Codec ID : V_VP9<br>
Duration : 26 min 36 s<br>
Bit rate : 11.7 Mb/s<br>
Width : 3 840 pixels<br>
Height : 2 160 pixels<br>
Display aspect ratio : 16:9<br>
Frame rate mode : Constant<br>
Frame rate : 23.976 (24000/1001) FPS<br>
Color space : YUV<br>
Chroma subsampling : 4:2:0<br>
Bit depth : 8 bits<br>
Bits/(Pixel*Frame) : 0.059<br>
Stream size : 2.18 GiB (99%)<br>
Default : Yes<br>
Forced : No<br>
Color range : Limited<br>
Matrix coefficients : BT.709<br>
<br>
Audio<br>
ID : 2<br>
Format : AAC LC<br>
Format/Info : Advanced Audio Codec Low Complexity<br>
Codec ID : A_AAC-2<br>
Duration : 26 min 37 s<br>
Bit rate : 132 kb/s<br>
Channel(s) : 2 channels<br>
Channel layout : L R<br>
Sampling rate : 44.1 kHz<br>
Frame rate : 43.066 FPS (1024 SPF)<br>
Compression mode : Lossy<br>
Stream size : 24.8 MiB (1%)<br>
Default : Yes<br>
Forced : No<br>
<br>
Text #1<br>
ID : 3<br>
Format : S_TEXT/WEBVTT<br>
Codec ID : S_TEXT/WEBVTT<br>
Duration : 25 min 46 s<br>
Bit rate : 77 b/s<br>
Frame rate : 0.268 FPS<br>
Count of elements : 414<br>
Stream size : 14.6 KiB (0%)<br>
Language : German<br>
Default : Yes<br>
Forced : No<br>
<br>
Text #2<br>
ID : 4<br>
Format : S_TEXT/WEBVTT<br>
Codec ID : S_TEXT/WEBVTT<br>
Duration : 24 min 40 s<br>
Bit rate : 77 b/s<br>
Frame rate : 0.275 FPS<br>
Count of elements : 407<br>
Stream size : 14.0 KiB (0%)<br>
Language : English<br>
Default : Yes<br>
Forced : No<br>
<br>
Text #3<br>
ID : 5<br>
Format : S_TEXT/WEBVTT<br>
Codec ID : S_TEXT/WEBVTT<br>
Duration : 24 min 40 s<br>
Bit rate : 75 b/s<br>
Frame rate : 0.265 FPS<br>
Count of elements : 392<br>
Stream size : 13.6 KiB (0%)<br>
Language : Spanish (Latin America)<br>
Default : Yes<br>
Forced : No<br>
<br>
Text #4<br>
ID : 6<br>
Format : S_TEXT/WEBVTT<br>
Codec ID : S_TEXT/WEBVTT<br>
Duration : 24 min 40 s<br>
Bit rate : 84 b/s<br>
Frame rate : 0.277 FPS<br>
Count of elements : 410<br>
Stream size : 15.3 KiB (0%)<br>
Language : French<br>
Default : Yes<br>
Forced : No<br>
<br>
Text #5<br>
ID : 7<br>
Format : S_TEXT/WEBVTT<br>
Codec ID : S_TEXT/WEBVTT<br>
Duration : 24 min 40 s<br>
Bit rate : 82 b/s<br>
Frame rate : 0.279 FPS<br>
Count of elements : 413<br>
Stream size : 15.0 KiB (0%)<br>
Language : Indonesian<br>
Default : Yes<br>
Forced : No<br>
<br>
Text #6<br>
ID : 8<br>
Format : S_TEXT/WEBVTT<br>
Codec ID : S_TEXT/WEBVTT<br>
Duration : 24 min 40 s<br>
Bit rate : 85 b/s<br>
Frame rate : 0.274 FPS<br>
Count of elements : 406<br>
Stream size : 15.5 KiB (0%)<br>
Language : Italian<br>
Default : Yes<br>
Forced : No<br>
<br>
Text #7<br>
ID : 9<br>
Format : S_TEXT/WEBVTT<br>
Codec ID : S_TEXT/WEBVTT<br>
Duration : 24 min 42 s<br>
Bit rate : 87 b/s<br>
Frame rate : 0.275 FPS<br>
Count of elements : 407<br>
Stream size : 15.8 KiB (0%)<br>
Language : Japanese<br>
Default : Yes<br>
Forced : No<br>
<br>
Text #8<br>
ID : 10<br>
Format : S_TEXT/WEBVTT<br>
Codec ID : S_TEXT/WEBVTT<br>
Duration : 25 min 49 s<br>
Bit rate : 84 b/s<br>
Frame rate : 0.267 FPS<br>
Count of elements : 414<br>
Stream size : 16.0 KiB (0%)<br>
Language : Korean<br>
Default : Yes<br>
Forced : No<br>
<br>
Text #9<br>
ID : 11<br>
Format : S_TEXT/WEBVTT<br>
Codec ID : S_TEXT/WEBVTT<br>
Duration : 24 min 40 s<br>
Bit rate : 77 b/s<br>
Frame rate : 0.269 FPS<br>
Count of elements : 398<br>
Stream size : 14.1 KiB (0%)<br>
Language : Portuguese (BR)<br>
Default : Yes<br>
Forced : No<br>
<br>
Text #10<br>
ID : 12<br>
Format : S_TEXT/WEBVTT<br>
Codec ID : S_TEXT/WEBVTT<br>
Duration : 24 min 40 s<br>
Bit rate : 131 b/s<br>
Frame rate : 0.333 FPS<br>
Count of elements : 493<br>
Stream size : 23.7 KiB (0%)<br>
Language : Russian<br>
Default : Yes<br>
Forced : No</div>
</div>
<div class="bbCodeBlock bbCodeVfcHH HiddenContent">
<div class="attribution type">Hidden Content:</div>
<blockquote>You must either reply or click 'Like' to see the hidden information contained here.</blockquote>
</div><b><span style="text-decoration: underline">Episode 4: It‘s on you and I<br>
Synopsis:</span></b> Can the show go on? BTS begin to wrap up their South America tour. Day-by-day, we see how the members passionately discuss how they can improve their stage performance. Sometimes these passions can boil over, as we see when V and Jin get into a heated argument about each other’s performance. With so much on the line, how will these tensions affect the members? Can BTS come together and reconcile their conflict before it’s too late?<br>
<b><span style="text-decoration: underline">Release Date:</span></b> April 11, 2018<br>
<div class="ToggleTriggerAnchor bbCodeSpoilerContainer">
<button type="button" class="button bbCodeSpoilerButton ToggleTrigger Tooltip JsOnly" data-target="> .SpoilerTarget"><span>Spoiler: <span class="SpoilerTitle">Thumbnails</span></span></button>
<div class="SpoilerTarget bbCodeSpoilerText"><img src="https://i.imgur.com/VxIu2ni.jpg" class="bbCodeImage LbImage" alt="[​IMG]" data-url="https://i.imgur.com/VxIu2ni.jpg" style=""></div>
</div>
<div class="ToggleTriggerAnchor bbCodeSpoilerContainer">
<button type="button" class="button bbCodeSpoilerButton ToggleTrigger Tooltip JsOnly" data-target="> .SpoilerTarget"><span>Spoiler: <span class="SpoilerTitle">MediaInfo</span></span></button>
<div class="SpoilerTarget bbCodeSpoilerText">General<br>
Unique ID : 337136960989978155342537565218159980637 (0xFDA23783AE2453782B115A74847FF05D)<br>
Format : Matroska<br>
Format version : Version 4<br>
File size : 2.21 GiB<br>
Duration : 26 min 24 s<br>
Overall bit rate : 12.0 Mb/s<br>
Frame rate : 23.976 FPS<br>
Encoded date : 2023-08-06 08:12:49 UTC<br>
Writing application : mkvmerge v78.0 ('Running') 64-bit<br>
Writing library : libebml v1.4.4 + libmatroska v1.7.1 / Lavf60.10.100<br>
<br>
Video<br>
ID : 1<br>
Format : VP9<br>
Format profile : 0<br>
Codec ID : V_VP9<br>
Duration : 26 min 24 s<br>
Bit rate : 11.8 Mb/s<br>
Width : 3 840 pixels<br>
Height : 2 160 pixels<br>
Display aspect ratio : 16:9<br>
Frame rate mode : Constant<br>
Frame rate : 23.976 (24000/1001) FPS<br>
Color space : YUV<br>
Chroma subsampling : 4:2:0<br>
Bit depth : 8 bits<br>
Bits/(Pixel*Frame) : 0.060<br>
Stream size : 2.18 GiB (99%)<br>
Default : Yes<br>
Forced : No<br>
Color range : Limited<br>
Matrix coefficients : BT.709<br>
<br>
Audio<br>
ID : 2<br>
Format : AAC LC<br>
Format/Info : Advanced Audio Codec Low Complexity<br>
Codec ID : A_AAC-2<br>
Duration : 26 min 24 s<br>
Bit rate : 132 kb/s<br>
Channel(s) : 2 channels<br>
Channel layout : L R<br>
Sampling rate : 44.1 kHz<br>
Frame rate : 43.066 FPS (1024 SPF)<br>
Compression mode : Lossy<br>
Stream size : 24.6 MiB (1%)<br>
Default : Yes<br>
Forced : No<br>
<br>
Text #1<br>
ID : 3<br>
Format : S_TEXT/WEBVTT<br>
Codec ID : S_TEXT/WEBVTT<br>
Duration : 25 min 37 s<br>
Bit rate : 86 b/s<br>
Frame rate : 0.277 FPS<br>
Count of elements : 426<br>
Stream size : 16.2 KiB (0%)<br>
Language : German<br>
Default : Yes<br>
Forced : No<br>
<br>
Text #2<br>
ID : 4<br>
Format : S_TEXT/WEBVTT<br>
Codec ID : S_TEXT/WEBVTT<br>
Duration : 25 min 37 s<br>
Bit rate : 77 b/s<br>
Frame rate : 0.278 FPS<br>
Count of elements : 428<br>
Stream size : 14.6 KiB (0%)<br>
Language : English<br>
Default : Yes<br>
Forced : No<br>
<br>
Text #3<br>
ID : 5<br>
Format : S_TEXT/WEBVTT<br>
Codec ID : S_TEXT/WEBVTT<br>
Duration : 25 min 37 s<br>
Bit rate : 72 b/s<br>
Frame rate : 0.265 FPS<br>
Count of elements : 408<br>
Stream size : 13.7 KiB (0%)<br>
Language : Spanish (Latin America)<br>
Default : Yes<br>
Forced : No<br>
<br>
Text #4<br>
ID : 6<br>
Format : S_TEXT/WEBVTT<br>
Codec ID : S_TEXT/WEBVTT<br>
Duration : 25 min 37 s<br>
Bit rate : 82 b/s<br>
Frame rate : 0.278 FPS<br>
Count of elements : 428<br>
Stream size : 15.4 KiB (0%)<br>
Language : French<br>
Default : Yes<br>
Forced : No<br>
<br>
Text #5<br>
ID : 7<br>
Format : S_TEXT/WEBVTT<br>
Codec ID : S_TEXT/WEBVTT<br>
Duration : 25 min 37 s<br>
Bit rate : 80 b/s<br>
Frame rate : 0.284 FPS<br>
Count of elements : 436<br>
Stream size : 15.2 KiB (0%)<br>
Language : Indonesian<br>
Default : Yes<br>
Forced : No<br>
<br>
Text #6<br>
ID : 8<br>
Format : S_TEXT/WEBVTT<br>
Codec ID : S_TEXT/WEBVTT<br>
Duration : 25 min 37 s<br>
Bit rate : 87 b/s<br>
Frame rate : 0.278 FPS<br>
Count of elements : 427<br>
Stream size : 16.3 KiB (0%)<br>
Language : Italian<br>
Default : Yes<br>
Forced : No<br>
<br>
Text #7<br>
ID : 9<br>
Format : S_TEXT/WEBVTT<br>
Codec ID : S_TEXT/WEBVTT<br>
Duration : 25 min 37 s<br>
Bit rate : 95 b/s<br>
Frame rate : 0.285 FPS<br>
Count of elements : 438<br>
Stream size : 18.0 KiB (0%)<br>
Language : Japanese<br>
Default : Yes<br>
Forced : No<br>
<br>
Text #8<br>
ID : 10<br>
Format : S_TEXT/WEBVTT<br>
Codec ID : S_TEXT/WEBVTT<br>
Duration : 25 min 37 s<br>
Bit rate : 95 b/s<br>
Frame rate : 0.286 FPS<br>
Count of elements : 440<br>
Stream size : 17.9 KiB (0%)<br>
Language : Korean<br>
Default : Yes<br>
Forced : No<br>
<br>
Text #9<br>
ID : 11<br>
Format : S_TEXT/WEBVTT<br>
Codec ID : S_TEXT/WEBVTT<br>
Duration : 25 min 37 s<br>
Bit rate : 71 b/s<br>
Frame rate : 0.264 FPS<br>
Count of elements : 406<br>
Stream size : 13.4 KiB (0%)<br>
Language : Portuguese (BR)<br>
Default : Yes<br>
Forced : No<br>
<br>
Text #10<br>
ID : 12<br>
Format : S_TEXT/WEBVTT<br>
Codec ID : S_TEXT/WEBVTT<br>
Duration : 25 min 37 s<br>
Bit rate : 129 b/s<br>
Frame rate : 0.345 FPS<br>
Count of elements : 531<br>
Stream size : 24.3 KiB (0%)<br>
Language : Russian<br>
Default : Yes<br>
Forced : No</div>
</div>
<div class="bbCodeBlock bbCodeVfcHH HiddenContent">
<div class="attribution type">Hidden Content:</div>
<blockquote>You must either reply or click 'Like' to see the hidden information contained here.</blockquote>
</div><span style="text-decoration: underline"><b>Episode 5: I Can’t Stop<br>
Synopsis:</b></span> This is why BTS are everlasting. After over a month, BTS’s South America tour comes to an end. The members take this moment to recharge and personally reflect, to rejuvenate their bodies and minds after this period of intense work. The members of BTS can always rely on each other for support and encouragement; see how time together helps strengthen their bonds, and makes them grow to become better artists and better people to each other.<br>
<b><span style="text-decoration: underline">Release Date:</span> </b>Apr 18, 2018<br>
<div class="ToggleTriggerAnchor bbCodeSpoilerContainer">
<button type="button" class="button bbCodeSpoilerButton ToggleTrigger Tooltip JsOnly" data-target="> .SpoilerTarget"><span>Spoiler: <span class="SpoilerTitle">Thumbnails</span></span></button>
<div class="SpoilerTarget bbCodeSpoilerText"><img src="https://i.imgur.com/SAuRxpv.jpg" class="bbCodeImage LbImage" alt="[​IMG]" data-url="https://i.imgur.com/SAuRxpv.jpg" style=""></div>
</div>
<div class="ToggleTriggerAnchor bbCodeSpoilerContainer">
<button type="button" class="button bbCodeSpoilerButton ToggleTrigger Tooltip JsOnly" data-target="> .SpoilerTarget"><span>Spoiler: <span class="SpoilerTitle">MediaInfo</span></span></button>
<div class="SpoilerTarget bbCodeSpoilerText">General<br>
Unique ID : 146504710719516013694924876972261906069 (0x6E37C7EB7A396046B4C7F54E73D41695)<br>
Format : Matroska<br>
Format version : Version 4<br>
File size : 2.23 GiB<br>
Duration : 26 min 33 s<br>
Overall bit rate : 12.0 Mb/s<br>
Frame rate : 23.976 FPS<br>
Encoded date : 2023-08-06 08:53:19 UTC<br>
Writing application : mkvmerge v78.0 ('Running') 64-bit<br>
Writing library : libebml v1.4.4 + libmatroska v1.7.1 / Lavf60.10.100<br>
<br>
Video<br>
ID : 1<br>
Format : VP9<br>
Format profile : 0<br>
Codec ID : V_VP9<br>
Duration : 26 min 33 s<br>
Bit rate : 11.9 Mb/s<br>
Width : 3 840 pixels<br>
Height : 2 160 pixels<br>
Display aspect ratio : 16:9<br>
Frame rate mode : Constant<br>
Frame rate : 23.976 (24000/1001) FPS<br>
Color space : YUV<br>
Chroma subsampling : 4:2:0<br>
Bit depth : 8 bits<br>
Bits/(Pixel*Frame) : 0.060<br>
Stream size : 2.20 GiB (99%)<br>
Default : Yes<br>
Forced : No<br>
Color range : Limited<br>
Matrix coefficients : BT.709<br>
<br>
Audio<br>
ID : 2<br>
Format : AAC LC<br>
Format/Info : Advanced Audio Codec Low Complexity<br>
Codec ID : A_AAC-2<br>
Duration : 26 min 33 s<br>
Bit rate : 132 kb/s<br>
Channel(s) : 2 channels<br>
Channel layout : L R<br>
Sampling rate : 44.1 kHz<br>
Frame rate : 43.066 FPS (1024 SPF)<br>
Compression mode : Lossy<br>
Stream size : 24.7 MiB (1%)<br>
Default : Yes<br>
Forced : No<br>
<br>
Text #1<br>
ID : 3<br>
Format : S_TEXT/WEBVTT<br>
Codec ID : S_TEXT/WEBVTT<br>
Duration : 25 min 50 s<br>
Bit rate : 72 b/s<br>
Frame rate : 0.252 FPS<br>
Count of elements : 390<br>
Stream size : 13.7 KiB (0%)<br>
Language : German<br>
Default : Yes<br>
Forced : No<br>
<br>
Text #2<br>
ID : 4<br>
Format : S_TEXT/WEBVTT<br>
Codec ID : S_TEXT/WEBVTT<br>
Duration : 25 min 53 s<br>
Bit rate : 70 b/s<br>
Frame rate : 0.251 FPS<br>
Count of elements : 390<br>
Stream size : 13.4 KiB (0%)<br>
Language : English<br>
Default : Yes<br>
Forced : No<br>
<br>
Text #3<br>
ID : 5<br>
Format : S_TEXT/WEBVTT<br>
Codec ID : S_TEXT/WEBVTT<br>
Duration : 25 min 50 s<br>
Bit rate : 69 b/s<br>
Frame rate : 0.226 FPS<br>
Count of elements : 351<br>
Stream size : 13.2 KiB (0%)<br>
Language : Spanish (Latin America)<br>
Default : Yes<br>
Forced : No<br>
<br>
Text #4<br>
ID : 6<br>
Format : S_TEXT/WEBVTT<br>
Codec ID : S_TEXT/WEBVTT<br>
Duration : 25 min 50 s<br>
Bit rate : 74 b/s<br>
Frame rate : 0.251 FPS<br>
Count of elements : 389<br>
Stream size : 14.0 KiB (0%)<br>
Language : French<br>
Default : Yes<br>
Forced : No<br>
<br>
Text #5<br>
ID : 7<br>
Format : S_TEXT/WEBVTT<br>
Codec ID : S_TEXT/WEBVTT<br>
Duration : 25 min 50 s<br>
Bit rate : 73 b/s<br>
Frame rate : 0.253 FPS<br>
Count of elements : 392<br>
Stream size : 13.9 KiB (0%)<br>
Language : Indonesian<br>
Default : Yes<br>
Forced : No<br>
<br>
Text #6<br>
ID : 8<br>
Format : S_TEXT/WEBVTT<br>
Codec ID : S_TEXT/WEBVTT<br>
Duration : 25 min 49 s<br>
Bit rate : 78 b/s<br>
Frame rate : 0.236 FPS<br>
Count of elements : 366<br>
Stream size : 14.8 KiB (0%)<br>
Language : Italian<br>
Default : Yes<br>
Forced : No<br>
<br>
Text #7<br>
ID : 9<br>
Format : S_TEXT/WEBVTT<br>
Codec ID : S_TEXT/WEBVTT<br>
Duration : 25 min 50 s<br>
Bit rate : 98 b/s<br>
Frame rate : 0.247 FPS<br>
Count of elements : 383<br>
Stream size : 18.6 KiB (0%)<br>
Language : Japanese<br>
Default : Yes<br>
Forced : No<br>
<br>
Text #8<br>
ID : 10<br>
Format : S_TEXT/WEBVTT<br>
Codec ID : S_TEXT/WEBVTT<br>
Duration : 25 min 50 s<br>
Bit rate : 86 b/s<br>
Frame rate : 0.259 FPS<br>
Count of elements : 401<br>
Stream size : 16.4 KiB (0%)<br>
Language : Korean<br>
Default : Yes<br>
Forced : No<br>
<br>
Text #9<br>
ID : 11<br>
Format : S_TEXT/WEBVTT<br>
Codec ID : S_TEXT/WEBVTT<br>
Duration : 25 min 50 s<br>
Bit rate : 70 b/s<br>
Frame rate : 0.225 FPS<br>
Count of elements : 349<br>
Stream size : 13.3 KiB (0%)<br>
Language : Portuguese (BR)<br>
Default : Yes<br>
Forced : No<br>
<br>
Text #10<br>
ID : 12<br>
Format : S_TEXT/WEBVTT<br>
Codec ID : S_TEXT/WEBVTT<br>
Duration : 25 min 50 s<br>
Bit rate : 114 b/s<br>
Frame rate : 0.301 FPS<br>
Count of elements : 466<br>
Stream size : 21.7 KiB (0%)<br>
Language : Russian<br>
Default : Yes<br>
Forced : No</div>
</div>
<div class="bbCodeBlock bbCodeVfcHH HiddenContent">
<div class="attribution type">Hidden Content:</div>
<blockquote>You must either reply or click 'Like' to see the hidden information contained here.</blockquote>
</div><b><span style="text-decoration: underline">Episode 6: Moonchild<br>
Synopsis:</span></b> A surprise appear while in Southeast Asia: BTS are nominated for a Billboard Music Award! Will success on the global stage change them? The members are honored and excited, but continue to focus on the path before them. BTS eventually win the award, becoming the first ever K-Pop artist to ever win a Billboard Music Award. Despite their growing renown, the members stay humble and make sure to remember what got them to where they are.<br>
<b><span style="text-decoration: underline">Release Date:</span></b> Apr 25, 2018<br>
<div class="ToggleTriggerAnchor bbCodeSpoilerContainer">
<button type="button" class="button bbCodeSpoilerButton ToggleTrigger Tooltip JsOnly" data-target="> .SpoilerTarget"><span>Spoiler: <span class="SpoilerTitle">Thumbnails</span></span></button>
<div class="SpoilerTarget bbCodeSpoilerText"><img src="https://i.imgur.com/75N2OHU.jpg" class="bbCodeImage LbImage" alt="[​IMG]" data-url="https://i.imgur.com/75N2OHU.jpg" style=""></div>
</div>
<div class="ToggleTriggerAnchor bbCodeSpoilerContainer">
<button type="button" class="button bbCodeSpoilerButton ToggleTrigger Tooltip JsOnly" data-target="> .SpoilerTarget"><span>Spoiler: <span class="SpoilerTitle">MediaInfo</span></span></button>
<div class="SpoilerTarget bbCodeSpoilerText">General<br>
Unique ID : 332492018680780503440165417591409906412 (0xFA23A22D5D50BCCB559D233BB3D692EC)<br>
Format : Matroska<br>
Format version : Version 4<br>
File size : 2.01 GiB<br>
Duration : 24 min 4 s<br>
Overall bit rate : 11.9 Mb/s<br>
Frame rate : 23.976 FPS<br>
Encoded date : 2023-08-06 09:20:51 UTC<br>
Writing application : mkvmerge v78.0 ('Running') 64-bit<br>
Writing library : libebml v1.4.4 + libmatroska v1.7.1 / Lavf60.10.100<br>
<br>
Video<br>
ID : 1<br>
Format : VP9<br>
Format profile : 0<br>
Codec ID : V_VP9<br>
Duration : 24 min 4 s<br>
Bit rate : 11.8 Mb/s<br>
Width : 3 840 pixels<br>
Height : 2 160 pixels<br>
Display aspect ratio : 16:9<br>
Frame rate mode : Constant<br>
Frame rate : 23.976 (24000/1001) FPS<br>
Color space : YUV<br>
Chroma subsampling : 4:2:0<br>
Bit depth : 8 bits<br>
Bits/(Pixel*Frame) : 0.059<br>
Stream size : 1.99 GiB (99%)<br>
Default : Yes<br>
Forced : No<br>
Color range : Limited<br>
Matrix coefficients : BT.709<br>
<br>
Audio<br>
ID : 2<br>
Format : AAC LC<br>
Format/Info : Advanced Audio Codec Low Complexity<br>
Codec ID : A_AAC-2<br>
Duration : 24 min 4 s<br>
Bit rate : 132 kb/s<br>
Channel(s) : 2 channels<br>
Channel layout : L R<br>
Sampling rate : 44.1 kHz<br>
Frame rate : 43.066 FPS (1024 SPF)<br>
Compression mode : Lossy<br>
Stream size : 22.4 MiB (1%)<br>
Default : Yes<br>
Forced : No<br>
<br>
Text #1<br>
ID : 3<br>
Format : S_TEXT/WEBVTT<br>
Codec ID : S_TEXT/WEBVTT<br>
Duration : 22 min 50 s<br>
Bit rate : 77 b/s<br>
Frame rate : 0.258 FPS<br>
Count of elements : 354<br>
Stream size : 12.9 KiB (0%)<br>
Language : German<br>
Default : Yes<br>
Forced : No<br>
<br>
Text #2<br>
ID : 4<br>
Format : S_TEXT/WEBVTT<br>
Codec ID : S_TEXT/WEBVTT<br>
Duration : 23 min 6 s<br>
Bit rate : 73 b/s<br>
Frame rate : 0.258 FPS<br>
Count of elements : 358<br>
Stream size : 12.5 KiB (0%)<br>
Language : English<br>
Default : Yes<br>
Forced : No<br>
<br>
Text #3<br>
ID : 5<br>
Format : S_TEXT/WEBVTT<br>
Codec ID : S_TEXT/WEBVTT<br>
Duration : 22 min 50 s<br>
Bit rate : 69 b/s<br>
Frame rate : 0.211 FPS<br>
Count of elements : 289<br>
Stream size : 11.6 KiB (0%)<br>
Language : Spanish (Latin America)<br>
Default : Yes<br>
Forced : No<br>
<br>
Text #4<br>
ID : 6<br>
Format : S_TEXT/WEBVTT<br>
Codec ID : S_TEXT/WEBVTT<br>
Duration : 23 min 6 s<br>
Bit rate : 74 b/s<br>
Frame rate : 0.238 FPS<br>
Count of elements : 330<br>
Stream size : 12.6 KiB (0%)<br>
Language : French<br>
Default : Yes<br>
Forced : No<br>
<br>
Text #5<br>
ID : 7<br>
Format : S_TEXT/WEBVTT<br>
Codec ID : S_TEXT/WEBVTT<br>
Duration : 22 min 50 s<br>
Bit rate : 77 b/s<br>
Frame rate : 0.258 FPS<br>
Count of elements : 354<br>
Stream size : 13.0 KiB (0%)<br>
Language : Indonesian<br>
Default : Yes<br>
Forced : No<br>
<br>
Text #6<br>
ID : 8<br>
Format : S_TEXT/WEBVTT<br>
Codec ID : S_TEXT/WEBVTT<br>
Duration : 22 min 50 s<br>
Bit rate : 81 b/s<br>
Frame rate : 0.262 FPS<br>
Count of elements : 359<br>
Stream size : 13.6 KiB (0%)<br>
Language : Italian<br>
Default : Yes<br>
Forced : No<br>
<br>
Text #7<br>
ID : 9<br>
Format : S_TEXT/WEBVTT<br>
Codec ID : S_TEXT/WEBVTT<br>
Duration : 23 min 6 s<br>
Bit rate : 87 b/s<br>
Frame rate : 0.247 FPS<br>
Count of elements : 342<br>
Stream size : 14.8 KiB (0%)<br>
Language : Japanese<br>
Default : Yes<br>
Forced : No<br>
<br>
Text #8<br>
ID : 10<br>
Format : S_TEXT/WEBVTT<br>
Codec ID : S_TEXT/WEBVTT<br>
Duration : 23 min 6 s<br>
Bit rate : 90 b/s<br>
Frame rate : 0.258 FPS<br>
Count of elements : 357<br>
Stream size : 15.2 KiB (0%)<br>
Language : Korean<br>
Default : Yes<br>
Forced : No<br>
<br>
Text #9<br>
ID : 11<br>
Format : S_TEXT/WEBVTT<br>
Codec ID : S_TEXT/WEBVTT<br>
Duration : 22 min 51 s<br>
Bit rate : 71 b/s<br>
Frame rate : 0.255 FPS<br>
Count of elements : 350<br>
Stream size : 11.9 KiB (0%)<br>
Language : Portuguese (BR)<br>
Default : Yes<br>
Forced : No<br>
<br>
Text #10<br>
ID : 12<br>
Format : S_TEXT/WEBVTT<br>
Codec ID : S_TEXT/WEBVTT<br>
Duration : 23 min 3 s<br>
Bit rate : 128 b/s<br>
Frame rate : 0.306 FPS<br>
Count of elements : 424<br>
Stream size : 21.7 KiB (0%)<br>
Language : Russian<br>
Default : Yes<br>
Forced : No</div>
</div>
<div class="bbCodeBlock bbCodeVfcHH HiddenContent">
<div class="attribution type">Hidden Content:</div>
<blockquote>You must either reply or click 'Like' to see the hidden information contained here.</blockquote>
</div><b><span style="text-decoration: underline">Episode 7: Best of Me<br>
Synopsis:</span></b> A dream comes true, but darkness lurks around the corner. The Wings tour is now in Japan. BTS are particularly excited about this leg of the tour as they are finally able to achieve one of their major dreams as artists: performing in a dome stadium. Having been in Japan before, BTS are relaxed and have an affinity for the fans there, so they want to cap their milestone with a flawless performance. However, an accident occurs during J-HOPE’s solo stage performance, putting at risk all that they hoped for. With the other members by his side, can J-HOPE overcome this personal challenge?<br>
<b><span style="text-decoration: underline">Release Date:</span></b> May 2, 2018<br>
<div class="ToggleTriggerAnchor bbCodeSpoilerContainer">
<button type="button" class="button bbCodeSpoilerButton ToggleTrigger Tooltip JsOnly" data-target="> .SpoilerTarget"><span>Spoiler: <span class="SpoilerTitle">Thumbnails</span></span></button>
<div class="SpoilerTarget bbCodeSpoilerText"><img src="https://i.imgur.com/YUPagAG.jpg" class="bbCodeImage LbImage" alt="[​IMG]" data-url="https://i.imgur.com/YUPagAG.jpg" style=""></div>
</div>
<div class="ToggleTriggerAnchor bbCodeSpoilerContainer">
<button type="button" class="button bbCodeSpoilerButton ToggleTrigger Tooltip JsOnly" data-target="> .SpoilerTarget"><span>Spoiler: <span class="SpoilerTitle">MediaInfo</span></span></button>
<div class="SpoilerTarget bbCodeSpoilerText">General<br>
Unique ID : 216775850264699411534616556519201796170 (0xA3158297849177361C2A1A832771704A)<br>
Format : Matroska<br>
Format version : Version 4<br>
File size : 3.06 GiB<br>
Duration : 25 min 36 s<br>
Overall bit rate : 17.1 Mb/s<br>
Frame rate : 23.976 FPS<br>
Encoded date : 2023-08-06 09:48:21 UTC<br>
Writing application : mkvmerge v78.0 ('Running') 64-bit<br>
Writing library : libebml v1.4.4 + libmatroska v1.7.1 / Lavf60.10.100<br>
<br>
Video<br>
ID : 1<br>
Format : VP9<br>
Format profile : 0<br>
Codec ID : V_VP9<br>
Duration : 25 min 36 s<br>
Bit rate : 17.0 Mb/s<br>
Width : 3 840 pixels<br>
Height : 2 160 pixels<br>
Display aspect ratio : 16:9<br>
Frame rate mode : Constant<br>
Frame rate : 23.976 (24000/1001) FPS<br>
Color space : YUV<br>
Chroma subsampling : 4:2:0<br>
Bit depth : 8 bits<br>
Bits/(Pixel*Frame) : 0.085<br>
Stream size : 3.03 GiB (99%)<br>
Default : Yes<br>
Forced : No<br>
Color range : Limited<br>
Matrix coefficients : BT.709<br>
<br>
Audio<br>
ID : 2<br>
Format : AAC LC<br>
Format/Info : Advanced Audio Codec Low Complexity<br>
Codec ID : A_AAC-2<br>
Duration : 25 min 36 s<br>
Bit rate : 132 kb/s<br>
Channel(s) : 2 channels<br>
Channel layout : L R<br>
Sampling rate : 44.1 kHz<br>
Frame rate : 43.066 FPS (1024 SPF)<br>
Compression mode : Lossy<br>
Stream size : 23.9 MiB (1%)<br>
Default : Yes<br>
Forced : No<br>
<br>
Text #1<br>
ID : 3<br>
Format : S_TEXT/WEBVTT<br>
Codec ID : S_TEXT/WEBVTT<br>
Duration : 24 min 51 s<br>
Bit rate : 73 b/s<br>
Frame rate : 0.234 FPS<br>
Count of elements : 349<br>
Stream size : 13.3 KiB (0%)<br>
Language : German<br>
Default : Yes<br>
Forced : No<br>
<br>
Text #2<br>
ID : 4<br>
Format : S_TEXT/WEBVTT<br>
Codec ID : S_TEXT/WEBVTT<br>
Duration : 24 min 51 s<br>
Bit rate : 65 b/s<br>
Frame rate : 0.235 FPS<br>
Count of elements : 350<br>
Stream size : 11.9 KiB (0%)<br>
Language : English<br>
Default : Yes<br>
Forced : No<br>
<br>
Text #3<br>
ID : 5<br>
Format : S_TEXT/WEBVTT<br>
Codec ID : S_TEXT/WEBVTT<br>
Duration : 24 min 51 s<br>
Bit rate : 66 b/s<br>
Frame rate : 0.222 FPS<br>
Count of elements : 331<br>
Stream size : 12.2 KiB (0%)<br>
Language : Spanish (Latin America)<br>
Default : Yes<br>
Forced : No<br>
<br>
Text #4<br>
ID : 6<br>
Format : S_TEXT/WEBVTT<br>
Codec ID : S_TEXT/WEBVTT<br>
Duration : 24 min 51 s<br>
Bit rate : 71 b/s<br>
Frame rate : 0.240 FPS<br>
Count of elements : 358<br>
Stream size : 13.0 KiB (0%)<br>
Language : French<br>
Default : Yes<br>
Forced : No<br>
<br>
Text #5<br>
ID : 7<br>
Format : S_TEXT/WEBVTT<br>
Codec ID : S_TEXT/WEBVTT<br>
Duration : 24 min 51 s<br>
Bit rate : 77 b/s<br>
Frame rate : 0.231 FPS<br>
Count of elements : 344<br>
Stream size : 14.0 KiB (0%)<br>
Language : Indonesian<br>
Default : Yes<br>
Forced : No<br>
<br>
Text #6<br>
ID : 8<br>
Format : S_TEXT/WEBVTT<br>
Codec ID : S_TEXT/WEBVTT<br>
Duration : 24 min 50 s<br>
Bit rate : 78 b/s<br>
Frame rate : 0.243 FPS<br>
Count of elements : 362<br>
Stream size : 14.4 KiB (0%)<br>
Language : Italian<br>
Default : Yes<br>
Forced : No<br>
<br>
Text #7<br>
ID : 9<br>
Format : S_TEXT/WEBVTT<br>
Codec ID : S_TEXT/WEBVTT<br>
Duration : 24 min 52 s<br>
Bit rate : 81 b/s<br>
Frame rate : 0.237 FPS<br>
Count of elements : 354<br>
Stream size : 14.9 KiB (0%)<br>
Language : Japanese<br>
Default : Yes<br>
Forced : No<br>
<br>
Text #8<br>
ID : 10<br>
Format : S_TEXT/WEBVTT<br>
Codec ID : S_TEXT/WEBVTT<br>
Duration : 24 min 51 s<br>
Bit rate : 87 b/s<br>
Frame rate : 0.242 FPS<br>
Count of elements : 361<br>
Stream size : 15.8 KiB (0%)<br>
Language : Korean<br>
Default : Yes<br>
Forced : No<br>
<br>
Text #9<br>
ID : 11<br>
Format : S_TEXT/WEBVTT<br>
Codec ID : S_TEXT/WEBVTT<br>
Duration : 24 min 51 s<br>
Bit rate : 67 b/s<br>
Frame rate : 0.227 FPS<br>
Count of elements : 339<br>
Stream size : 12.3 KiB (0%)<br>
Language : Portuguese (BR)<br>
Default : Yes<br>
Forced : No<br>
<br>
Text #10<br>
ID : 12<br>
Format : S_TEXT/WEBVTT<br>
Codec ID : S_TEXT/WEBVTT<br>
Duration : 24 min 50 s<br>
Bit rate : 126 b/s<br>
Frame rate : 0.291 FPS<br>
Count of elements : 434<br>
Stream size : 23.0 KiB (0%)<br>
Language : Russian<br>
Default : Yes<br>
Forced : No</div>
</div>
<div class="bbCodeBlock bbCodeVfcHH HiddenContent">
<div class="attribution type">Hidden Content:</div>
<blockquote>You must either reply or click 'Like' to see the hidden information contained here.</blockquote>
</div><span style="text-decoration: underline"><b>Episode 8: I NEED YOU<br>
Synopsis:</b></span> This is it: the end of the tour. What can possibly go wrong? With tears in their eyes and heavy hearts, BTS perform an encore where it all began – Korea. The Billboard Music Awards were just the first stop; BTS now heads to the American Music Awards, something they’ve only dreamt about. Despite pre-show jitters, BTS rally together to charm the world with an amazing performance. In the afterglow of their awards appearance, BTS head to the final destination of their Wings tour, Macau. There, they are met with one last scare when Jimin suddenly falls ill, which leaves the members worried for his well-being. After a long journey, BTS share with us their innermost feelings in their last interview for the camera.<br>
<b><span style="text-decoration: underline">Release Date:</span> </b>May 9, 2018<br>
<div class="ToggleTriggerAnchor bbCodeSpoilerContainer">
<button type="button" class="button bbCodeSpoilerButton ToggleTrigger Tooltip JsOnly" data-target="> .SpoilerTarget"><span>Spoiler: <span class="SpoilerTitle">Thumbnails</span></span></button>
<div class="SpoilerTarget bbCodeSpoilerText"><img src="https://i.imgur.com/7VjTE0n.jpg" class="bbCodeImage LbImage" alt="[​IMG]" data-url="https://i.imgur.com/7VjTE0n.jpg" style=""></div>
</div>
<div class="ToggleTriggerAnchor bbCodeSpoilerContainer">
<button type="button" class="button bbCodeSpoilerButton ToggleTrigger Tooltip JsOnly" data-target="> .SpoilerTarget"><span>Spoiler: <span class="SpoilerTitle">MediaInfo</span></span></button>
<div class="SpoilerTarget bbCodeSpoilerText">General<br>
Unique ID : 206733349480782105641276506113342307490 (0x9B8765135F5C7CEB41C289C6D701FCA2)<br>
Format : Matroska<br>
Format version : Version 4<br>
File size : 3.19 GiB<br>
Duration : 26 min 22 s<br>
Overall bit rate : 17.3 Mb/s<br>
Frame rate : 23.976 FPS<br>
Encoded date : 2023-08-06 10:24:30 UTC<br>
Writing application : mkvmerge v78.0 ('Running') 64-bit<br>
Writing library : libebml v1.4.4 + libmatroska v1.7.1<br>
<br>
Video<br>
ID : 1<br>
Format : VP9<br>
Format profile : 0<br>
Codec ID : V_VP9<br>
Duration : 26 min 21 s<br>
Bit rate : 17.2 Mb/s<br>
Width : 3 840 pixels<br>
Height : 2 160 pixels<br>
Display aspect ratio : 16:9<br>
Frame rate mode : Constant<br>
Frame rate : 23.976 (23976/1000) FPS<br>
Color space : YUV<br>
Chroma subsampling : 4:2:0<br>
Bit depth : 8 bits<br>
Bits/(Pixel*Frame) : 0.086<br>
Stream size : 3.17 GiB (99%)<br>
Default : Yes<br>
Forced : No<br>
Color range : Limited<br>
Matrix coefficients : BT.709<br>
<br>
Audio<br>
ID : 2<br>
Format : AAC LC<br>
Format/Info : Advanced Audio Codec Low Complexity<br>
Codec ID : A_AAC-2<br>
Duration : 26 min 22 s<br>
Bit rate : 132 kb/s<br>
Channel(s) : 2 channels<br>
Channel layout : L R<br>
Sampling rate : 44.1 kHz<br>
Frame rate : 43.066 FPS (1024 SPF)<br>
Compression mode : Lossy<br>
Stream size : 24.6 MiB (1%)<br>
Default : Yes<br>
Forced : No<br>
<br>
Text #1<br>
ID : 3<br>
Format : S_TEXT/WEBVTT<br>
Codec ID : S_TEXT/WEBVTT<br>
Duration : 24 min 46 s<br>
Bit rate : 88 b/s<br>
Frame rate : 0.279 FPS<br>
Count of elements : 415<br>
Stream size : 16.0 KiB (0%)<br>
Language : German<br>
Default : Yes<br>
Forced : No<br>
<br>
Text #2<br>
ID : 4<br>
Format : S_TEXT/WEBVTT<br>
Codec ID : S_TEXT/WEBVTT<br>
Duration : 24 min 46 s<br>
Bit rate : 82 b/s<br>
Frame rate : 0.280 FPS<br>
Count of elements : 416<br>
Stream size : 15.0 KiB (0%)<br>
Language : English<br>
Default : Yes<br>
Forced : No<br>
<br>
Text #3<br>
ID : 5<br>
Format : S_TEXT/WEBVTT<br>
Codec ID : S_TEXT/WEBVTT<br>
Duration : 24 min 45 s<br>
Bit rate : 83 b/s<br>
Frame rate : 0.274 FPS<br>
Count of elements : 407<br>
Stream size : 15.2 KiB (0%)<br>
Language : Spanish (Latin America)<br>
Default : Yes<br>
Forced : No<br>
<br>
Text #4<br>
ID : 6<br>
Format : S_TEXT/WEBVTT<br>
Codec ID : S_TEXT/WEBVTT<br>
Duration : 25 min 0 s<br>
Bit rate : 89 b/s<br>
Frame rate : 0.274 FPS<br>
Count of elements : 411<br>
Stream size : 16.5 KiB (0%)<br>
Language : French<br>
Default : Yes<br>
Forced : No<br>
<br>
Text #5<br>
ID : 7<br>
Format : S_TEXT/WEBVTT<br>
Codec ID : S_TEXT/WEBVTT<br>
Duration : 25 min 0 s<br>
Bit rate : 93 b/s<br>
Frame rate : 0.265 FPS<br>
Count of elements : 398<br>
Stream size : 17.1 KiB (0%)<br>
Language : Indonesian<br>
Default : Yes<br>
Forced : No<br>
<br>
Text #6<br>
ID : 8<br>
Format : S_TEXT/WEBVTT<br>
Codec ID : S_TEXT/WEBVTT<br>
Duration : 24 min 46 s<br>
Bit rate : 96 b/s<br>
Frame rate : 0.286 FPS<br>
Count of elements : 425<br>
Stream size : 17.4 KiB (0%)<br>
Language : Italian<br>
Default : Yes<br>
Forced : No<br>
<br>
Text #7<br>
ID : 9<br>
Format : S_TEXT/WEBVTT<br>
Codec ID : S_TEXT/WEBVTT<br>
Duration : 24 min 46 s<br>
Bit rate : 79 b/s<br>
Frame rate : 0.280 FPS<br>
Count of elements : 416<br>
Stream size : 14.5 KiB (0%)<br>
Language : Japanese<br>
Default : Yes<br>
Forced : No<br>
<br>
Text #8<br>
ID : 10<br>
Format : S_TEXT/WEBVTT<br>
Codec ID : S_TEXT/WEBVTT<br>
Duration : 24 min 46 s<br>
Bit rate : 100 b/s<br>
Frame rate : 0.275 FPS<br>
Count of elements : 409<br>
Stream size : 18.2 KiB (0%)<br>
Language : Korean<br>
Default : Yes<br>
Forced : No<br>
<br>
Text #9<br>
ID : 11<br>
Format : S_TEXT/WEBVTT<br>
Codec ID : S_TEXT/WEBVTT<br>
Duration : 24 min 46 s<br>
Bit rate : 85 b/s<br>
Frame rate : 0.260 FPS<br>
Count of elements : 387<br>
Stream size : 15.6 KiB (0%)<br>
Language : Portuguese (BR)<br>
Default : Yes<br>
Forced : No<br>
<br>
Text #10<br>
ID : 12<br>
Format : S_TEXT/WEBVTT<br>
Codec ID : S_TEXT/WEBVTT<br>
Duration : 24 min 46 s<br>
Bit rate : 152 b/s<br>
Frame rate : 0.350 FPS<br>
Count of elements : 521<br>
Stream size : 27.6 KiB (0%)<br>
Language : Russian<br>
Default : Yes<br>
Forced : No</div>
</div>
<div class="bbCodeBlock bbCodeVfcHH HiddenContent">
<div class="attribution type">Hidden Content:</div>
<blockquote>You must either reply or click 'Like' to see the hidden information contained here.</blockquote>
</div>
<div class="messageTextEndMarker">&nbsp;</div>
</blockquote>
</article>]]></description>
                <author><![CDATA[charlescanlom]]></author>
                </item>

                
                <item>
                <title><![CDATA[【HD Live Performances】WEB-RiP - The Smile - Pitchfork Music Festival (2023) HD 1080p]]></title>
                <link><![CDATA[https://sharemania.us/threads/the-smile-pitchfork-music-festival-2023-hd-1080p.225870/]]></link>
                <description><![CDATA[<article>
<blockquote class="messageText SelectQuoteContainer ugc baseHtml">
<div style="text-align: center">The Smile - Pitchfork Music Festival (2023) HD 1080p<br>
<br>
<img src="https://imageup.ru/img65/4461671/ts.jpg" class="bbCodeImage LbImage" alt="[​IMG]" data-url="https://imageup.ru/img65/4461671/ts.jpg" style=""><br>
<br>
Screenshots:<br>
<img src="https://imageup.ru/img187/4461678/the-smile-pitchfork-music-festival-2023-1080p_idx.jpg" class="bbCodeImage LbImage" alt="[​IMG]" data-url="https://imageup.ru/img187/4461678/the-smile-pitchfork-music-festival-2023-1080p_idx.jpg" style=""><br>
<br>
Setlist:<br>
01 - Pana-Vision (with Robert Stillman)<br>
02 - The Opposite<br>
03 - A Hairdryer (Shortened Version)<br>
04 - Waving a White Flag<br>
05 - Under Our Pillows (Shortened Version)<br>
06 - We Don't Know What Tomorrow Brings<br>
07 - Colours Fly (with Robert Stillman)<br>
08 - Thin Thing<br>
09 - Skrting on the Surface<br>
10 - The Same<br>
11 - The Smoke (with Robert Stillman)<br>
12 - People on Balconies (with Robert Stillman)<br>
13 - You Will Never Work in Television Again (with Robert Stillman)<br>
14 - Bending Hectic<br>
15 - Feeling Pulled Apart by Horses (Thom Yorke song)<br>
<br>
Info:<br>
Genre: Alternative Rock<br>
Quality: WEB-DL | 1080p<br>
Format: MKV | 7500kbps<br>
Length: 01:15:00 | 4.02Gb<br>
Video: H.264 | 1920x1080 | 16:9 | 29.970fps<br>
Audio: AAC | 128kbps | 48kHz | 2 channels: L R<br>
Language: English<br>
<br>
Download:<br>
Rapidgator.net, Uploadgig.com, Ddownload.com<br>
<div class="bbCodeBlock bbCodeVfcHH HiddenContent">
<div class="attribution type">Hidden Content:</div>
<blockquote>You must either reply or click 'Like' to see the hidden information contained here.</blockquote>
</div>pass: 345<br>
<br>
​</div>
<div class="messageTextEndMarker">&nbsp;</div>
</blockquote>
</article>]]></description>
                <author><![CDATA[barboss]]></author>
                </item>

                
                <item>
                <title><![CDATA[【BLU-RAY】BLU-RAY - Duran Duran - A Hollywood High (2023) Blu-Ray]]></title>
                <link><![CDATA[https://sharemania.us/threads/duran-duran-a-hollywood-high-2023-blu-ray.225868/]]></link>
                <description><![CDATA[<article>
<blockquote class="messageText SelectQuoteContainer ugc baseHtml">
<div style="text-align: center">Duran Duran - A Hollywood High (2023) Blu-Ray 1080p<br>
<br>
<img src="https://imageup.ru/img264/4461673/dd.jpg" class="bbCodeImage LbImage" alt="[​IMG]" data-url="https://imageup.ru/img264/4461673/dd.jpg" style=""><br>
<br>
Screenshots:<br>
<img src="https://imageup.ru/img11/4461676/00010_idx.jpg" class="bbCodeImage LbImage" alt="[​IMG]" data-url="https://imageup.ru/img11/4461676/00010_idx.jpg" style=""><br>
<br>
Setlist:<br>
01. A view to a kill<br>
02. Invisible<br>
03. All of you<br>
04. Notorious<br>
05. Come undone<br>
06. Give it all up<br>
07. Pressure off<br>
08. White lines<br>
09. Anniversary<br>
10. Ordinary world<br>
11. Tonight united<br>
12. Hungry like the wolf<br>
<br>
Bonus features: <br>
- Interview with Roger Taylor <br>
- ‘All Of You’ exclusive (never seen before) performance<br>
- Film premiere Q&amp;A highlights<br>
<br>
About: Prepare for an explosive journey through a blistering setlist with Duran Duran's 'A Hollywood High' on Blu-ray and DVD. Visually stunning, this electrifying high-rise rooftop performance was filmed in Los Angeles at The Aster, framed against an iconic LA skyline and the Capitol Records building. Experience the pulsating energy of the band's timeless music in crystal-clear 4K, enhanced by 5.1 and Dolby Atmos surround sound. With exclusive extras, behind-the-scenes footage, and interviews, this video is a must-have for any Duran Duran fan.<br>
<br>
Info:<br>
Genre: New Wave | Rock<br>
Quality: Blu-Ray | 1080p<br>
Format: M2TS | 19.9Mbps<br>
Length: 01:12:17 + 00:13:05 | 21.8Gb<br>
Video: H.264 | 1920x1080 | 16:9 | 23.976fps<br>
Audio 1: LPCM | 2304kbps | 48kHz | 2 channels: L R<br>
Audio 2: DTS-HD MA | 4698kbps | 48kHz | 6 channels: Front: L C R, Surround: L R<br>
Audio 3: Dolby TrueHD | Athmos Audio | 6238kbps | 48kHz | 8 channels: L C R LFE Lb Rb Lss Rss<br>
Language: English<br>
<br>
Download:<br>
Rapidgator.net, Uploadgig.com, Drop.download<br>
<div class="bbCodeBlock bbCodeVfcHH HiddenContent">
<div class="attribution type">Hidden Content:</div>
<blockquote>You must either reply or click 'Like' to see the hidden information contained here.</blockquote>
</div>pass: 345<br>
<br>
​</div>
<div class="messageTextEndMarker">&nbsp;</div>
</blockquote>
</article>]]></description>
                <author><![CDATA[barboss]]></author>
                </item>

                </channel></rss>